<svg width="467" height="467" viewBox="0 0 467 467" fill="none" xmlns="http://www.w3.org/2000/svg">
<mask id="path-1-outside-1_102_2" maskUnits="userSpaceOnUse" x="0.750366" y="0.261658" width="467" height="467" fill="black">
<rect fill="white" x="0.750366" y="0.261658" width="467" height="467"/>
<path fill-rule="evenodd" clip-rule="evenodd" d="M419.857 67.0345C429.303 76.4809 429.303 91.7965 419.857 101.243L287.742 233.357L419.857 365.471C429.303 374.918 429.303 390.234 419.857 399.68L400.169 419.368C390.722 428.814 375.407 428.814 365.96 419.368L233.846 287.254L101.732 419.368C92.2853 428.814 76.9697 428.814 67.5233 419.368L47.8352 399.68C38.3888 390.234 38.3889 374.918 47.8353 365.471L179.949 233.357L47.8352 101.243C38.3888 91.7965 38.3887 76.4809 47.8351 67.0345L67.5232 47.3465C76.9696 37.9001 92.2852 37.9001 101.732 47.3465L233.846 179.461L365.96 47.3465C375.407 37.9 390.722 37.9 400.169 47.3464L419.857 67.0345Z"/>
</mask>
<path d="M419.857 101.243L391.572 72.9587L391.572 72.9587L419.857 101.243ZM419.857 67.0345L391.572 95.3188L391.572 95.3188L419.857 67.0345ZM287.742 233.357L259.458 205.073L231.174 233.357L259.458 261.642L287.742 233.357ZM419.857 399.68L448.141 427.964L448.141 427.964L419.857 399.68ZM400.169 419.368L371.884 391.084L371.884 391.084L400.169 419.368ZM365.96 419.368L394.244 391.084L394.244 391.084L365.96 419.368ZM233.846 287.254L262.13 258.969L233.846 230.685L205.562 258.969L233.846 287.254ZM101.732 419.368L73.4475 391.084L73.4475 391.084L101.732 419.368ZM67.5233 419.368L95.8076 391.084L95.8076 391.084L67.5233 419.368ZM47.8352 399.68L19.551 427.964L19.551 427.964L47.8352 399.68ZM47.8353 365.471L19.551 337.187L19.551 337.187L47.8353 365.471ZM179.949 233.357L208.234 261.642L236.518 233.357L208.234 205.073L179.949 233.357ZM47.8352 101.243L76.1194 72.9587L47.8352 101.243ZM47.8351 67.0345L76.1194 95.3188L76.1194 95.3188L47.8351 67.0345ZM67.5232 47.3465L39.2389 19.0622L39.2389 19.0622L67.5232 47.3465ZM101.732 47.3465L73.4474 75.6307L101.732 47.3465ZM233.846 179.461L205.562 207.745L233.846 236.029L262.13 207.745L233.846 179.461ZM365.96 47.3465L337.676 19.0622L337.676 19.0622L365.96 47.3465ZM400.169 47.3464L371.884 75.6307L371.884 75.6307L400.169 47.3464ZM448.141 129.527C473.208 104.46 473.208 63.8176 448.141 38.7502L391.572 95.3188C385.398 89.1442 385.398 79.1332 391.572 72.9587L448.141 129.527ZM316.027 261.642L448.141 129.527L391.572 72.9587L259.458 205.073L316.027 261.642ZM448.141 337.187L316.027 205.073L259.458 261.642L391.572 393.756L448.141 337.187ZM448.141 427.964C473.208 402.897 473.208 362.255 448.141 337.187L391.572 393.756C385.398 387.581 385.398 377.57 391.572 371.396L448.141 427.964ZM428.453 447.652L448.141 427.964L391.572 371.396L371.884 391.084L428.453 447.652ZM337.676 447.652C362.743 472.72 403.386 472.72 428.453 447.652L371.884 391.084C378.059 384.909 388.07 384.909 394.244 391.084L337.676 447.652ZM205.562 315.538L337.676 447.652L394.244 391.084L262.13 258.969L205.562 315.538ZM130.016 447.652L262.13 315.538L205.562 258.969L73.4475 391.084L130.016 447.652ZM39.239 447.652C64.3064 472.72 104.949 472.72 130.016 447.652L73.4475 391.084C79.6219 384.909 89.6329 384.909 95.8076 391.084L39.239 447.652ZM19.551 427.964L39.239 447.652L95.8076 391.084L76.1195 371.396L19.551 427.964ZM19.551 337.187C-5.51636 362.255 -5.51643 402.897 19.551 427.964L76.1195 371.396C82.2941 377.57 82.2941 387.581 76.1195 393.756L19.551 337.187ZM151.665 205.073L19.551 337.187L76.1195 393.756L208.234 261.642L151.665 205.073ZM19.5509 129.527L151.665 261.642L208.234 205.073L76.1194 72.9587L19.5509 129.527ZM19.5509 38.7502C-5.51653 63.8176 -5.51647 104.46 19.5509 129.527L76.1194 72.9587C82.294 79.1332 82.294 89.1442 76.1194 95.3188L19.5509 38.7502ZM39.2389 19.0622L19.5509 38.7502L76.1194 95.3188L95.8075 75.6307L39.2389 19.0622ZM130.016 19.0622C104.949 -6.00515 64.3063 -6.00521 39.2389 19.0622L95.8075 75.6307C89.6329 81.8053 79.6219 81.8053 73.4474 75.6307L130.016 19.0622ZM262.13 151.176L130.016 19.0622L73.4474 75.6307L205.562 207.745L262.13 151.176ZM337.676 19.0622L205.562 151.176L262.13 207.745L394.245 75.6307L337.676 19.0622ZM428.453 19.0622C403.386 -6.00528 362.743 -6.00513 337.676 19.0622L394.245 75.6307C388.07 81.8052 378.059 81.8053 371.884 75.6307L428.453 19.0622ZM448.141 38.7502L428.453 19.0622L371.884 75.6307L391.572 95.3188L448.141 38.7502Z" fill="#FEAF00" mask="url(#path-1-outside-1_102_2)"/>
</svg>
