<svg width="40" height="40" viewBox="0 0 40 40" fill="none" xmlns="http://www.w3.org/2000/svg">
<path d="M34.2498 8.28667V36C34.2498 37.7949 32.7947 39.25 30.9998 39.25H9C7.20507 39.25 5.75 37.7949 5.75 36V4C5.75 2.20508 7.20508 0.75 9 0.75H26.0445L34.2498 8.28667Z" stroke="#D0D5DD" stroke-width="1.5"/>
<mask id="path-2-inside-1_2001_3661" fill="white">
<path d="M25 1H33.5V9.5H26C25.4477 9.5 25 9.05229 25 8.5V1Z"/>
</mask>
<path d="M25 1H33.5H25ZM33.5 10.5H26C24.8954 10.5 24 9.60457 24 8.5H26H33.5V10.5ZM26 10.5C24.8954 10.5 24 9.60457 24 8.5V1H26V8.5V10.5ZM33.5 1V9.5V1Z" fill="#D0D5DD" mask="url(#path-2-inside-1_2001_3661)"/>
<rect x="1" y="20" width="34" height="13" rx="2" fill="#6172F3"/>
<path d="M6.38184 22.98C7.12184 22.98 7.7685 23.1267 8.32184 23.42C8.87517 23.7133 9.30184 24.1267 9.60184 24.66C9.9085 25.1867 10.0618 25.7967 10.0618 26.49C10.0618 27.1767 9.9085 27.7867 9.60184 28.32C9.30184 28.8533 8.87184 29.2667 8.31184 29.56C7.7585 29.8533 7.11517 30 6.38184 30H3.75184V22.98H6.38184ZM6.27184 28.52C6.9185 28.52 7.42184 28.3433 7.78184 27.99C8.14184 27.6367 8.32184 27.1367 8.32184 26.49C8.32184 25.8433 8.14184 25.34 7.78184 24.98C7.42184 24.62 6.9185 24.44 6.27184 24.44H5.46184V28.52H6.27184ZM12.6975 22.98V27.18C12.6975 27.6 12.8008 27.9233 13.0075 28.15C13.2141 28.3767 13.5175 28.49 13.9175 28.49C14.3175 28.49 14.6241 28.3767 14.8375 28.15C15.0508 27.9233 15.1575 27.6 15.1575 27.18V22.98H16.8675V27.17C16.8675 27.7967 16.7341 28.3267 16.4675 28.76C16.2008 29.1933 15.8408 29.52 15.3875 29.74C14.9408 29.96 14.4408 30.07 13.8875 30.07C13.3341 30.07 12.8375 29.9633 12.3975 29.75C11.9641 29.53 11.6208 29.2033 11.3675 28.77C11.1141 28.33 10.9875 27.7967 10.9875 27.17V22.98H12.6975ZM26.0182 22.98V30H24.3082V25.79L22.7382 30H21.3582L19.7782 25.78V30H18.0682V22.98H20.0882L22.0582 27.84L24.0082 22.98H26.0182ZM32.5979 25.24C32.5979 25.6467 32.5046 26.02 32.3179 26.36C32.1313 26.6933 31.8446 26.9633 31.4579 27.17C31.0713 27.3767 30.5913 27.48 30.0179 27.48H28.9579V30H27.2479V22.98H30.0179C30.5779 22.98 31.0513 23.0767 31.4379 23.27C31.8246 23.4633 32.1146 23.73 32.3079 24.07C32.5013 24.41 32.5979 24.8 32.5979 25.24ZM29.8879 26.12C30.2146 26.12 30.4579 26.0433 30.6179 25.89C30.7779 25.7367 30.8579 25.52 30.8579 25.24C30.8579 24.96 30.7779 24.7433 30.6179 24.59C30.4579 24.4367 30.2146 24.36 29.8879 24.36H28.9579V26.12H29.8879Z" fill="white"/>
</svg>
