<svg width="14" height="14" viewBox="0 0 14 14" fill="none" xmlns="http://www.w3.org/2000/svg">
<path d="M7 8C8.38071 8 9.5 6.88071 9.5 5.5C9.5 4.11929 8.38071 3 7 3C5.61929 3 4.5 4.11929 4.5 5.5C4.5 6.88071 5.61929 8 7 8Z" stroke="#000001" stroke-linecap="round" stroke-linejoin="round"/>
<path d="M2.09998 13.4999C2.32949 12.3696 2.94271 11.3534 3.83572 10.6235C4.72873 9.8936 5.84662 9.49487 6.99998 9.49487C8.15333 9.49487 9.27122 9.8936 10.1642 10.6235C11.0572 11.3534 11.6705 12.3696 11.9 13.4999" stroke="#000001" stroke-linecap="round" stroke-linejoin="round"/>
<path d="M12.5 0.5H1.5C0.947715 0.5 0.5 0.947715 0.5 1.5V12.5C0.5 13.0523 0.947715 13.5 1.5 13.5H12.5C13.0523 13.5 13.5 13.0523 13.5 12.5V1.5C13.5 0.947715 13.0523 0.5 12.5 0.5Z" stroke="#000001" stroke-linecap="round" stroke-linejoin="round"/>
</svg>
