<svg width="40" height="41" viewBox="0 0 40 41" fill="none" xmlns="http://www.w3.org/2000/svg">
<g clip-path="url(#clip0_2001_3547)">
<path d="M34.2498 8.98918V36.7025C34.2498 38.4974 32.7947 39.9525 30.9998 39.9525H9C7.20507 39.9525 5.75 38.4974 5.75 36.7025V4.70252C5.75 2.90759 7.20508 1.45251 9 1.45251H26.0445L34.2498 8.98918Z" stroke="#D0D5DD" stroke-width="1.5"/>
<mask id="path-2-inside-1_2001_3547" fill="white">
<path d="M25 1.70251H33.5V10.2025H26C25.4477 10.2025 25 9.7548 25 9.20251V1.70251Z"/>
</mask>
<path d="M25 1.70251H33.5H25ZM33.5 11.2025H26C24.8954 11.2025 24 10.3071 24 9.20251H26H33.5V11.2025ZM26 11.2025C24.8954 11.2025 24 10.3071 24 9.20251V1.70251H26V9.20251V11.2025ZM33.5 1.70251V10.2025V1.70251Z" fill="#D0D5DD" mask="url(#path-2-inside-1_2001_3547)"/>
<rect x="1" y="20.7025" width="23" height="13" rx="2" fill="#F04438"/>
<path d="M8.9827 25.9425C8.9827 26.3492 8.88936 26.7225 8.7027 27.0625C8.51603 27.3958 8.22936 27.6658 7.8427 27.8725C7.45603 28.0792 6.97603 28.1825 6.4027 28.1825H5.3427V30.7025H3.6327V23.6825H6.4027C6.9627 23.6825 7.43603 23.7792 7.8227 23.9725C8.20936 24.1658 8.49936 24.4325 8.6927 24.7725C8.88603 25.1125 8.9827 25.5025 8.9827 25.9425ZM6.2727 26.8225C6.59936 26.8225 6.8427 26.7458 7.0027 26.5925C7.1627 26.4392 7.2427 26.2225 7.2427 25.9425C7.2427 25.6625 7.1627 25.4458 7.0027 25.2925C6.8427 25.1392 6.59936 25.0625 6.2727 25.0625H5.3427V26.8225H6.2727ZM12.5029 23.6825C13.2429 23.6825 13.8896 23.8292 14.4429 24.1225C14.9963 24.4158 15.4229 24.8292 15.7229 25.3625C16.0296 25.8892 16.1829 26.4992 16.1829 27.1925C16.1829 27.8792 16.0296 28.4892 15.7229 29.0225C15.4229 29.5558 14.9929 29.9692 14.4329 30.2625C13.8796 30.5558 13.2363 30.7025 12.5029 30.7025H9.87293V23.6825H12.5029ZM12.3929 29.2225C13.0396 29.2225 13.5429 29.0458 13.9029 28.6925C14.2629 28.3392 14.4429 27.8392 14.4429 27.1925C14.4429 26.5458 14.2629 26.0425 13.9029 25.6825C13.5429 25.3225 13.0396 25.1425 12.3929 25.1425H11.5829V29.2225H12.3929ZM21.7086 23.6825V25.0525H18.8486V26.5325H20.9886V27.8625H18.8486V30.7025H17.1386V23.6825H21.7086Z" fill="white"/>
</g>
<defs>
<clipPath id="clip0_2001_3547">
<rect width="40" height="40" fill="white" transform="translate(0 0.702515)"/>
</clipPath>
</defs>
</svg>
